<svg id="Calque_2" data-name="Calque 2" xmlns="http://www.w3.org/2000/svg" viewBox="0 0 121.24 121.24"><defs><style>.cls-1{fill:none;}.cls-2{fill:#222221;}</style></defs><title>Core Drill</title><rect class="cls-1" width="121.24" height="121.24"/><path class="cls-2" d="M74.6,68.13c-3.5,0-6.36-1-6.55-2.26h0V101.4H81.16V65.87h0C81,67.13,78.1,68.13,74.6,68.13Z"/><rect class="cls-2" x="68.05" y="102.12" width="13.12" height="2.39"/><path class="cls-2" d="M83.35,36.92V25.25a8.74,8.74,0,0,0-8.74-8.74h0a8.74,8.74,0,0,0-8.74,8.74v11H61.69a8.76,8.76,0,0,0-1.42.12V22a4.2,4.2,0,1,0-8.39,0V39.7l-7.94-6a3.83,3.83,0,1,0-1.39,1.85l9.33,7v43.8H36.45v9.13A7.44,7.44,0,0,1,48,104.92H60.27V53.64a8.76,8.76,0,0,0,1.42.12H71v5.07h1.93v4.55c-2.56.25-4.43,1-4.43,2,0,1.14,2.75,2.07,6.15,2.07s6.15-.93,6.15-2.07c0-1-2-1.77-4.59-2V58.84h1.93V53.77H81.3a3.63,3.63,0,0,0,2-.63h0a3.64,3.64,0,0,0,1.6-3V39.94A3.66,3.66,0,0,0,83.35,36.92Z"/><circle class="cls-2" cx="42.07" cy="100.4" r="5.47"/><rect class="cls-2" x="36.5" y="81.45" width="14" height="3.34"/></svg>