<svg id="Calque_2" data-name="Calque 2" xmlns="http://www.w3.org/2000/svg" viewBox="0 0 121.24 121.24"><defs><style>.cls-1{fill:none;}.cls-2{fill:#222221;}</style></defs><title>Dry</title><rect class="cls-1" width="121.24" height="121.24"/><path class="cls-2" d="M79.12,69.83c0-4.5-2.52-10.78-5.69-17.41L96.27,29.58l-2-2L72.11,49.71C66.87,39.14,60.62,28.17,60.62,22.37c0,5.89-6.24,16.83-11.47,27.35L27,27.56l-2,2L47.82,52.43c-3.18,6.62-5.71,12.89-5.71,17.4a23.28,23.28,0,0,0,1.55,8.32L25,96.85l2,2L44.93,80.91c3.53,6.59,9.83,11,15.69,11s12.16-4.44,15.69-11L94.25,98.86l2-2-18.7-18.7A23.28,23.28,0,0,0,79.12,69.83Zm-2.85,0a20.24,20.24,0,0,1-.94,6.07L62.63,63.21l8.65-8.65C74.07,60.47,76.27,66.08,76.27,69.83ZM54.55,45.37c2.31-4.53,4.47-8.75,6.09-12.54,1.6,3.73,3.72,7.89,6,12.35,1.11,2.17,2.25,4.42,3.35,6.66l-9.36,9.36-9.34-9.34C52.35,49.67,53.46,47.49,54.55,45.37ZM45,69.83c0-3.75,2.21-9.36,5-15.26l8.64,8.64L45.9,75.91A20.46,20.46,0,0,1,45,69.83ZM60.62,89.09c-3.47,0-7.35-2.06-10.4-5.51A21.19,21.19,0,0,1,47,78.8L60.62,65.23,74.18,78.79C71.2,84.92,65.56,89.09,60.62,89.09Z"/></svg>