<svg id="Calque_2" data-name="Calque 2" xmlns="http://www.w3.org/2000/svg" viewBox="0 0 121.24 121.24"><defs><style>.cls-1{fill:none;}.cls-2{fill:#222221;}</style></defs><title>Floor Saw</title><rect class="cls-1" width="121.24" height="121.24"/><path class="cls-2" d="M17.46,71.86A26.09,26.09,0,0,0,64.08,88L20.24,60.16A26,26,0,0,0,17.46,71.86Z"/><path class="cls-2" d="M110.68,28.07H98.06L93.87,40.26l-3.05-.42L89.2,43.41,82,40.12l-2,4.47L67.36,38l-2.26,3L63.59,40a8.1,8.1,0,0,0-9.73.34A31.5,31.5,0,0,0,16.52,56.2l52,33L66,94.83h7.17a8.05,8.05,0,0,1,12.6-9.34L99.85,41.08l-3.54-.49,3.47-10.11h10.9a1.21,1.21,0,1,0,0-2.41ZM61.94,42.38l1.44,1-.87,1.17a31.41,31.41,0,0,0-5.1-2.87A5.2,5.2,0,0,1,61.94,42.38ZM67.18,46a5.21,5.21,0,0,1,2.18,5,31.65,31.65,0,0,0-4.55-4.71L65.75,45ZM44.5,72.51a1.77,1.77,0,1,1,1.77-1.77A1.77,1.77,0,0,1,44.5,72.51ZM76,72.68c.05-.74.09-1.49.09-2.25A31.32,31.32,0,0,0,71.42,54a8.11,8.11,0,0,0-2.58-10.31l-1.36-.95.74-1,10.55,5.5-2,4.35L84,54.89Z"/><path class="cls-2" d="M80.53,84.55a7.09,7.09,0,1,0,7.09,7.09A7.09,7.09,0,0,0,80.53,84.55Zm0,9.45a2.36,2.36,0,1,1,2.36-2.36A2.36,2.36,0,0,1,80.53,94Z"/></svg>