<svg id="Calque_2" data-name="Calque 2" xmlns="http://www.w3.org/2000/svg" viewBox="0 0 121.24 121.24"><defs><style>.cls-1{fill:none;}</style></defs><title>Brazed</title><rect class="cls-1" width="121.24" height="121.24"/><path d="M88.66,57.32h12.64a1.3,1.3,0,0,0,0-2.6H88.66a31,31,0,0,1-15.14-4.18A4.91,4.91,0,0,0,69,50.31L65.7,51.83a53.56,53.56,0,0,1-21.42,4.45c-15.27,0-21.74-3.84-21.74-5.36S29,45.55,44.28,45.55c6.62,0,12.86.83,17.12,2.27A1.3,1.3,0,0,0,63,47s0-.08,0-.12a1.29,1.29,0,0,0-.84-1.53C57.72,43.83,51.17,43,44.28,43c-12.09,0-24.34,2.73-24.34,8a4.34,4.34,0,0,0,2,3.39c-2,1.29-3.33,2.94-3.33,5s1.17,3.58,3.06,4.85C19.82,65.44,18.64,67,18.64,69c0,7.31,15.74,9.26,25,9.26s25-2,25-9.26c0-2-1.17-3.58-3.06-4.85,1.89-1.26,3.06-2.85,3.06-4.85s-1.1-3.48-2.88-4.72c.57-.24.9-.41,1-.44l3.29-1.5a2.31,2.31,0,0,1,2.11.11A33.61,33.61,0,0,0,88.66,57.32ZM66.14,69c0,3.68-10.05,6.66-22.45,6.66S21.24,72.7,21.24,69c0-1.25,1.16-2.42,3.18-3.42,5.43,2.25,13.56,3,19.26,3s13.83-.74,19.26-3C65,66.6,66.14,67.77,66.14,69Zm0-9.69C66.14,63,56.09,66,43.69,66s-22.45-3-22.45-6.66c0-1.29,1.25-2.5,3.4-3.52,4.66,2,12.18,3.07,19.64,3.07A57.73,57.73,0,0,0,62.73,55.8C64.89,56.83,66.14,58,66.14,59.33Z"/><path d="M101.29,65.24H88.4A30.4,30.4,0,0,0,72.12,70a1.3,1.3,0,0,0,1.36,2.21,32.47,32.47,0,0,1,3.21-1.73A27.17,27.17,0,0,1,88.4,67.83h12.9a1.3,1.3,0,0,0,0-2.6Z"/></svg>