<svg id="Calque_2" data-name="Calque 2" xmlns="http://www.w3.org/2000/svg" viewBox="0 0 121.24 121.24"><defs><style>.cls-1{fill:none;}.cls-2{fill:#222221;}</style></defs><title>Floor Grinder</title><rect class="cls-1" width="121.24" height="121.24"/><path class="cls-2" d="M98.55,84a10.51,10.51,0,1,0,10.51,10.51A10.51,10.51,0,0,0,98.55,84Zm0,19.26a8.76,8.76,0,1,1,8.76-8.76A8.76,8.76,0,0,1,98.55,103.26Z"/><circle class="cls-2" cx="57.3" cy="99.13" r="4.85"/><path class="cls-2" d="M91.85,77.73H84.63A7.89,7.89,0,0,0,84,64.21V61.1H77.11v2.84a7.89,7.89,0,0,0-1.25,13.79H68.56v1.9H91.85ZM73.78,71.17a6.47,6.47,0,1,1,6.47,6.47A6.47,6.47,0,0,1,73.78,71.17Z"/><circle class="cls-2" cx="80.25" cy="71.17" r="5.66"/><circle class="cls-2" cx="98.55" cy="94.51" r="7.88"/><path class="cls-2" d="M99.21,82.4a12.22,12.22,0,0,0-2.52.12A7.75,7.75,0,0,0,92,81H67.32L62.68,84.1l-4.47-6.43.66-.47a10,10,0,0,0,2.41-14L46.81,42.73a10,10,0,0,0-14-2.41l-.36.26L21.13,24.31H12a1.43,1.43,0,0,0,0,2.85h7.65L30.18,42.33a10,10,0,0,0-1.23,13L43.42,75.81a10,10,0,0,0,12.35,3.35l4.54,6.53-9,6,3.92,2.47a5.32,5.32,0,0,1,7.34,4.62l5.85,3.68H90.2a11.52,11.52,0,0,1-3.22-8,11.57,11.57,0,0,1,23.13,0,11.52,11.52,0,0,1-3.22,8,1.61,1.61,0,0,0,1.28-.64,12,12,0,0,0,2.49-7.64A12.2,12.2,0,0,0,99.21,82.4ZM88.14,88.29h0Zm-.51.93h0Zm-.74,1.94,0,.1Zm-.25,1,0,.16Zm-.16,1.12s0,.1,0,.14S86.48,93.38,86.48,93.33Z"/></svg>