<svg id="Calque_2" data-name="Calque 2" xmlns="http://www.w3.org/2000/svg" viewBox="0 0 121.24 121.24"><defs><style>.cls-1{fill:none;}.cls-2{fill:#222221;}</style></defs><title>Hand Grinder</title><rect class="cls-1" width="121.24" height="121.24"/><rect class="cls-2" x="18.69" y="66.78" width="39.26" height="3.06"/><rect class="cls-2" x="32.4" y="70.38" width="11.84" height="4.74"/><path class="cls-2" d="M81,61.1h5.58V57.49A26,26,0,0,0,81,61.1Z"/><path class="cls-2" d="M102.63,48.57H81.06v7.87a28,28,0,0,1-7.42,5.91h5.1s7.32-7.24,14.89-7.24,7,5.19,14.21,4.64c6-.47,2.94-5.85.16-8.8A7.36,7.36,0,0,0,102.63,48.57Z"/><path class="cls-2" d="M39.17,54.78c2-1.26,3.81-2.38,5.48-3.35H34.81a2.88,2.88,0,0,0-2.7,3v4.7Z"/><path class="cls-2" d="M40.69,76.91v-.56a.63.63,0,0,0-.63-.63H36.58a.63.63,0,0,0-.63.63v.56c-13.51.09-24.1,1-24.1,2.08s11.85,2.09,26.47,2.09S64.79,80.15,64.79,79,54.2,77,40.69,76.91ZM38.21,79c-1,0-1.89-.15-1.89-.33s.85-.33,1.89-.33,1.89.15,1.89.33S39.25,79,38.21,79Z"/><path class="cls-2" d="M63.66,46.73c-9.73,0-13.76,2.77-22.27,8.05L23.84,65.66H56s14.4,1.39,24.32-9.75V46.73Z"/></svg>