<svg id="Calque_2" data-name="Calque 2" xmlns="http://www.w3.org/2000/svg" viewBox="0 0 121.24 121.24"><defs><style>.cls-1{fill:none;}</style></defs><title>Hand Drill</title><rect class="cls-1" width="121.24" height="121.24"/><path d="M45.56,42.18h9.28V55.72H45.56Z"/><path d="M76.94,71.36l-7.27-.27c2.22-3,2.19-6.17,1.27-9.43,1.64-.12,2.85.41,3.35,1.76C75.24,66,76,68.61,76.94,71.36Z"/><rect x="55.48" y="40.9" width="3" height="16.18" rx="1.5" ry="1.5"/><path d="M35.52,47.72c3.11,0,6.14-5.53,9.28-5.53V55.72c-3.11,0-6.14-5.53-9.28-5.53Z"/><path d="M92.56,83.92a4.31,4.31,0,1,1-8.63,0H73.34A2.37,2.37,0,0,0,71,86.29v6.82a2.37,2.37,0,0,0,2.37,2.37H98.65A2.37,2.37,0,0,0,101,93.11V86.29a2.37,2.37,0,0,0-2.37-2.37Z"/><path d="M94.26,73.56c-5.07-15.35.56-12.93.56-15l-.06-18.36A2.74,2.74,0,0,0,92,37.49H61.91a2.74,2.74,0,0,0-2.74,2.74V56.38a3.94,3.94,0,0,0,3.94,3.94s6.51.27,7.92.4c2.27.2,4,1.15,4.63,3.46,1.26,4.31,2.53,7.73,3.79,12.05,1.11,3.81-2.29,7-2.29,7H84a4.31,4.31,0,0,1,8.52,0h5.71S95.55,77.48,94.26,73.56Z"/><circle cx="88.25" cy="83.92" r="3.53"/><path d="M95.95,58.25l-.55.29V40.23l2.18,2.13a6.88,6.88,0,0,1,2.08,4.93v4.87A6.88,6.88,0,0,1,95.95,58.25Z"/><polygon points="29.87 47.82 28.34 47.82 27.62 50.08 29.16 50.08 29.87 47.82"/><polygon points="27.39 47.82 25.86 47.82 25.15 50.08 26.68 50.08 27.39 47.82"/><polygon points="22.68 50.08 24.21 50.08 24.92 47.82 23.39 47.82 22.68 50.08"/><path d="M22.44,47.82H21.34a1.13,1.13,0,0,0,0,2.26h.4Z"/><polygon points="33.35 47.82 32.64 50.08 34.74 50.08 34.74 47.82 33.35 47.82"/><polygon points="32.41 47.82 30.88 47.82 30.16 50.08 31.7 50.08 32.41 47.82"/></svg>