<svg id="Calque_2" data-name="Calque 2" xmlns="http://www.w3.org/2000/svg" viewBox="0 0 121.24 121.24"><defs><style>.cls-1{fill:none;}.cls-2{fill:#222221;}</style></defs><title>Laser</title><rect class="cls-1" width="121.24" height="121.24"/><path class="cls-2" d="M81.1,74l21.75,1.93L80.27,64.51,95.4,57.74,78.73,54.67l14-11.4-21,7.46V31.87l-9.21,19.3L50.23,31.87l5.26,22.8L31.37,39.59,27,45.46,52.73,62,34.44,69.14l15.79,2.63L31.81,88.88,57.55,76l.13,22.54L65.18,82l2.15,8.38,3.51-8.95,8.55,12.45L76.54,78.57l14.25,6.14Zm-7.59.77L74.3,79l.89,4.78-2.47-3.59-2.43-3.54-1.57,4L67.78,83l-.39-1.54-1.61-6.27L63.1,81.09l-3.2,7L59.83,76l0-3.67-3.28,1.64L45.05,79.7l6.73-6.25,3.4-3.16-4.58-.76L43,68.26l10.58-4.13,4.16-1.63L54,60.08,30.28,44.87l1.67-2.23,22.34,14L59,59.53l-1.24-5.37-2.27-9.85,5.14,8.08,2.21,3.47,1.77-3.71,4.87-10.2V54l3-1.08,8.6-3L77.29,52.9,73.46,56l4.86.9,9.45,1.74-8.43,3.77-4.37,2,4.27,2.16,12,6.07-9.94-.88-5.8-.51,3.91,4.32,2.65,2.92-4.62-2Z"/></svg>