<?xml version="1.0" encoding="utf-8"?>
<!-- Generator: Adobe Illustrator 21.0.2, SVG Export Plug-In . SVG Version: 6.00 Build 0)  -->
<svg version="1.1" id="Calque_1" xmlns="http://www.w3.org/2000/svg" xmlns:xlink="http://www.w3.org/1999/xlink" x="0px" y="0px"
	 viewBox="0 0 124 113" style="enable-background:new 0 0 124 113;" xml:space="preserve">
<style type="text/css">
	.st0{fill:#005193;}
	.st1{fill:#FFFFFF;}
</style>
<g>
	<polygon class="st0" points="67.6,43.2 98.7,43.2 92.8,50.9 67.6,50.9 	"/>
	<path class="st1" d="M97.7,43.7l-5.2,6.7l-24.4,0v-6.8H97.7 M99.7,42.7h-2H68.1h-1v1v6.8v1l1,0l24.4,0l0.5,0l0.3-0.4l5.2-6.7
		L99.7,42.7L99.7,42.7z"/>
</g>
<g>
	<polygon class="st0" points="67.6,60.3 67.6,52.6 97.5,52.6 91.5,60.3 	"/>
	<path class="st1" d="M68.1,53.1l28.3,0l-5.2,6.7H68.1V53.1 M67.1,52.1v1v6.7v1h1h23.1h0.5l0.3-0.4l5.2-6.7l1.3-1.6l-2,0l-28.3,0
		L67.1,52.1L67.1,52.1z"/>
</g>
<g>
	<path class="st0" d="M28.8,70.3V52.6h9.6v9.5h8.6c2,0,3.7-0.5,5-1.6c1.3-1,1.9-2.3,1.9-3.9c0-1.6-0.6-2.9-1.9-4
		c-1.3-1.1-3-1.6-5-1.6l-36.4,0l1.5-1.3c0.3-0.2,29.2-24.9,92.1-41.9l0.1,0h6.8l-3.6,1.4c-12,4.8-41.7,17.4-62.5,33.5h2
		c4.7,0,8.7,1.2,11.7,3.7c3.1,2.5,4.7,5.8,4.7,9.8c0,4-1.6,7.4-4.7,10c-3.1,2.6-7,3.9-11.7,3.9H28.8z"/>
	<path class="st1" d="M107.1,8.7c-12.8,5.1-43.5,18.3-64.3,35h4.2c4.6,0,8.3,1.2,11.3,3.5c2.9,2.4,4.4,5.4,4.4,9.2
		c0,3.8-1.5,6.9-4.4,9.4c-3,2.5-6.7,3.8-11.2,3.8H29.6V53.4h8.1v9.5h9.3c2.2,0,4.1-0.6,5.5-1.7c1.4-1.1,2.2-2.6,2.2-4.5
		c0-1.8-0.7-3.4-2.2-4.6c-1.5-1.2-3.3-1.8-5.5-1.8l-34.4,0c0,0,28.4-24.6,91.8-41.8H107.1 M114.9,7.2h-7.8h-2.8h-0.2l-0.2,0.1
		C40.9,24.3,11.8,49,11.6,49.3l-3,2.6l4,0l15.5,0v1.5v16.2v1.5h1.5h17.4c4.9,0,8.9-1.4,12.2-4.1c3.3-2.8,5-6.4,5-10.6
		c0-4.2-1.7-7.7-4.9-10.4c-3.1-2.5-7.2-3.8-12-3.8C67.7,26.8,96,14.7,107.6,10.1L114.9,7.2L114.9,7.2z M39.1,51.9l7.8,0
		c1.9,0,3.3,0.5,4.5,1.4c1.1,0.9,1.6,2,1.6,3.4c0,1.4-0.5,2.5-1.6,3.3c-1.2,0.9-2.7,1.4-4.6,1.4h-7.8v-8V51.9L39.1,51.9z"/>
</g>
<g>
	<path class="st0" d="M16.4,105.2l2.4-1C31,99.4,61.2,86.5,82.1,70.1H67.6l0-7.7l47.4,0l-1,0.9c-0.3,0.2-29.3,24.9-92.2,42l-0.1,0
		H16.4z"/>
	<path class="st1" d="M113.7,62.8c0,0-28.5,24.7-92,41.8H19c12.6-5,43.6-18.3,64.5-35.1H68.1l0-6.7L113.7,62.8 M116.4,61.8l-2.7,0
		l-45.6,0l-1,0l0,1l0,6.7l0,1h1h12.5c-20.8,15.9-50,28.4-62,33.1l-4.9,1.9H19h2.7h0.1l0.1,0c63.1-17,92.1-41.8,92.4-42.1L116.4,61.8
		L116.4,61.8z"/>
</g>
</svg>
