<svg id="Calque_2" data-name="Calque 2" xmlns="http://www.w3.org/2000/svg" viewBox="0 0 121.24 121.24"><defs><style>.cls-1{fill:none;}.cls-2{fill:#222221;}</style></defs><title>Petrol Hand Cutter</title><rect class="cls-1" width="121.24" height="121.24"/><path class="cls-2" d="M22.34,45.62a21.44,21.44,0,0,0,20,37.72Z"/><path class="cls-2" d="M57.8,55.43a2.7,2.7,0,0,0-.61,1.14L53.09,72.89a2.69,2.69,0,0,0,.18,1.81l2.21,4.66a25.89,25.89,0,0,0,4.13-25.94Z"/><path class="cls-2" d="M48.61,76.92a7.86,7.86,0,0,1-.52-5.28L52.2,55.31A7.88,7.88,0,0,1,54,52l3.1-3.45A25.87,25.87,0,0,0,21.3,41.27L45.38,86.8a25.9,25.9,0,0,0,6.2-3.63Zm-12-13.13a1.46,1.46,0,1,1-.54-2A1.46,1.46,0,0,1,36.61,63.79Z"/><path class="cls-2" d="M73.46,48.32l-5.19-7.58-3.28,3,1,5.94C68.59,49.12,71.07,48.67,73.46,48.32Z"/><path class="cls-2" d="M64.75,51.66l-.56,1.21c-.32.69-1.53,4.62,0,4.76L77.44,59a4.26,4.26,0,0,1,3.71,3.09l.41,1.44A3.46,3.46,0,0,0,84.25,66l11.57,2.64.84-2.24C99.38,59,97.68,54,91,51.7,85.69,49.93,77.42,48,65.54,51A1.19,1.19,0,0,0,64.75,51.66Z"/><path class="cls-2" d="M56.6,94a1.78,1.78,0,0,1-1.78-1.78V88.9a3.5,3.5,0,0,0-.34-1.49L49.33,76.58a7.06,7.06,0,0,1-.47-4.75L53,55.5a7.08,7.08,0,0,1,1.59-3l10.76-12A1.78,1.78,0,0,1,68,42.92l-10.76,12a3.5,3.5,0,0,0-.79,1.48L52.32,72.7A3.48,3.48,0,0,0,52.55,75L57.7,85.87a7.09,7.09,0,0,1,.68,3v3.3A1.78,1.78,0,0,1,56.6,94Z"/><path class="cls-2" d="M94.86,75.5a4.33,4.33,0,0,1,1,2.6s.55,2.68,2.53-2.18a5.82,5.82,0,0,0,.22-.64,13,13,0,0,0-3.05-1.87Z"/><path class="cls-2" d="M66.39,86.12a7.65,7.65,0,0,1-7.08-6.7c-.1-1,.55-2.28,1.45-4A36.22,36.22,0,0,0,63,70.31a19.28,19.28,0,0,0,.66-2.59,8.38,8.38,0,0,0-2.87,3.64,26.39,26.39,0,0,1-4.4,8.1l2.72,5.73A8.68,8.68,0,0,1,60,88.9v.51l2.23-1.1L85.81,89a1.12,1.12,0,0,0,.85-.34Z"/><circle class="cls-2" cx="66.95" cy="79.82" r="2.25"/><path class="cls-2" d="M110.28,79.36c-.06-1.42-1.39-3-3-4.4A47.7,47.7,0,0,0,96.83,69.8l-13.37-3a3.46,3.46,0,0,1-2.69-2.46l-.41-1.44a4.26,4.26,0,0,0-3.71-3.09l-12-1.37s.73,6.82-1,12.08c-1.42,4.23-3.84,7.29-3.68,8.86a7.06,7.06,0,0,0,6.53,6.17l37.92,4.82A5.66,5.66,0,0,0,110,85.67,28,28,0,0,0,110.28,79.36ZM66.95,82.92a3.1,3.1,0,1,1,3.1-3.1A3.1,3.1,0,0,1,66.95,82.92Zm22.52,1.39a.75.75,0,0,1-.86.61l-11.73-2a.74.74,0,1,1,.25-1.47l11.73,2A.75.75,0,0,1,89.47,84.31Zm.44-2.61a.75.75,0,0,1-.86.61l-11.73-2a.75.75,0,0,1-.61-.86h0a.75.75,0,0,1,.86-.61l11.73,2A.75.75,0,0,1,89.91,81.7Zm.44-2.61a.75.75,0,0,1-.86.61l-11.73-2A.74.74,0,1,1,78,76.24l11.73,2A.75.75,0,0,1,90.35,79.08Zm.44-2.61a.75.75,0,0,1-.86.61l-11.73-2a.74.74,0,1,1,.25-1.47l11.73,2A.75.75,0,0,1,90.79,76.47Zm.44-2.61a.75.75,0,0,1-.86.61l-11.73-2A.74.74,0,1,1,78.9,71l11.73,2A.75.75,0,0,1,91.24,73.86Zm16.32,12.93a4.55,4.55,0,0,1-4.47,2l-8.75-1.34a1.45,1.45,0,0,1-.7-.39,3.79,3.79,0,0,1-1.12-4l2.43-10.63a18.16,18.16,0,0,1,5,3.34,15.81,15.81,0,0,0,8.62,4.72S108.9,84.5,107.56,86.79Z"/></svg>