<svg id="Calque_2" data-name="Calque 2" xmlns="http://www.w3.org/2000/svg" viewBox="0 0 121.24 121.24"><defs><style>.cls-1{fill:none;}</style></defs><title>Sintered</title><rect class="cls-1" width="121.24" height="121.24"/><path d="M60.57,91.56q10.17,0,20.34,0c3.56,0,4.21-.65,4.22-4.11,0-2.75,0-5.5,0-8.25-.08-5.13,1.39-7-6.38-6.55h-.27c-3-.18-3.85-1-3.86-4.06q0-7.15,0-14.3c0-2.32-1.32-3.3-3.45-3.36s-3.49,1-3.61,3.23c-.09,1.55,0,3.11,0,4.67,0,3.22-.79,4-4.09,4-4.4,0-8.8.09-13.2,0-2.61-.07-3.68,1.06-3.64,3.59.06,3.85,0,7.7,0,11.55,0,6.8,0,6.8-6.73,6.9-3,0-3.9.83-3.87,3.34s1,3.34,3.94,3.35C46.82,91.58,53.69,91.56,60.57,91.56ZM53.5,55.15a3.5,3.5,0,0,0-3.63-3.45,3.32,3.32,0,0,0-3.13,3.5,3.38,3.38,0,0,0,6.75,0ZM29.06,51.69a3.31,3.31,0,0,0-3.31,2.91,3.39,3.39,0,0,0,3,3.83,3.26,3.26,0,0,0,3.66-2.9C32.8,53.65,31.39,52,29.06,51.69ZM39.66,80.5A3.18,3.18,0,0,0,43,77.14a3,3,0,0,0-3.29-3.27,3.29,3.29,0,0,0-3.46,3.43A3.33,3.33,0,0,0,39.66,80.5ZM28.29,73.9C27,74,25.82,75.1,25.73,77.14a3.28,3.28,0,0,0,3.58,3.32A3.11,3.11,0,0,0,32.45,77C32.36,75.08,31.22,73.79,28.29,73.9Zm74.47-22.21A3.26,3.26,0,0,0,99.29,55a3.16,3.16,0,0,0,3.13,3.47A3.35,3.35,0,0,0,105.94,55,3.3,3.3,0,0,0,102.76,51.69ZM95.46,55a3.37,3.37,0,0,0-3.38-3.28c-1.95.16-3.27,1.13-3.25,3.31A3.12,3.12,0,0,0,92,58.44,3.39,3.39,0,0,0,95.46,55ZM29.22,91.55a3.49,3.49,0,0,0,3.29-3.41,3.28,3.28,0,0,0-3.64-3.25,3.11,3.11,0,0,0-3.13,3.18A3.41,3.41,0,0,0,29.22,91.55Zm10.48-22c2-.26,3.26-1.42,3.26-3.39a3,3,0,0,0-3.27-3.25,3.22,3.22,0,0,0-3.47,3.39A3.41,3.41,0,0,0,39.69,69.5Zm-10.34,0a3.19,3.19,0,0,0,3.09-3.25,3,3,0,0,0-3.14-3.36,3.11,3.11,0,0,0-3.56,3A3.45,3.45,0,0,0,29.35,69.48ZM60.12,51.8A3,3,0,0,0,57.25,55a3.21,3.21,0,0,0,3.21,3.44A3.36,3.36,0,0,0,64,55C63.8,53.1,62.77,51.81,60.12,51.8Zm-20.58,0a3.18,3.18,0,0,0-3.33,3.3,3.36,3.36,0,0,0,3.59,3.35A3.23,3.23,0,0,0,43,54.95,3.08,3.08,0,0,0,39.54,51.8ZM85,55.09c-.18-2-1.32-3.3-3.29-3.35a3,3,0,0,0-3.36,3.15,3.2,3.2,0,0,0,3.27,3.56C83.67,58.33,84.72,57.09,85,55.09Zm-63.14.09a3,3,0,0,0-3.1-3.45,3.17,3.17,0,0,0-3.5,3.12,3.28,3.28,0,0,0,3.31,3.59A3.09,3.09,0,0,0,21.87,55.18Zm31.63-11a3.5,3.5,0,0,0-3.63-3.45,3.32,3.32,0,0,0-3.13,3.5,3.38,3.38,0,0,0,6.75,0ZM29.06,40.69a3.31,3.31,0,0,0-3.31,2.91,3.39,3.39,0,0,0,3,3.83,3.26,3.26,0,0,0,3.66-2.9C32.8,42.65,31.39,41,29.06,40.69Zm73.7,0A3.26,3.26,0,0,0,99.29,44a3.16,3.16,0,0,0,3.13,3.47A3.35,3.35,0,0,0,105.94,44,3.3,3.3,0,0,0,102.76,40.69ZM95.46,44a3.37,3.37,0,0,0-3.38-3.28c-1.95.16-3.27,1.13-3.25,3.31A3.12,3.12,0,0,0,92,47.44,3.39,3.39,0,0,0,95.46,44ZM60.12,40.8A3,3,0,0,0,57.25,44a3.21,3.21,0,0,0,3.21,3.44A3.36,3.36,0,0,0,64,44C63.8,42.1,62.77,40.81,60.12,40.8Zm10.82,0A3,3,0,0,0,68.07,44a3.21,3.21,0,0,0,3.21,3.44A3.36,3.36,0,0,0,74.82,44C74.62,42.1,73.59,40.81,70.94,40.8Zm-31.4,0a3.18,3.18,0,0,0-3.33,3.3,3.36,3.36,0,0,0,3.59,3.35A3.23,3.23,0,0,0,43,43.95,3.08,3.08,0,0,0,39.54,40.8ZM85,44.09c-.18-2-1.32-3.3-3.29-3.35a3,3,0,0,0-3.36,3.15,3.2,3.2,0,0,0,3.27,3.56C83.67,47.33,84.72,46.09,85,44.09Zm-63.14.09a3,3,0,0,0-3.1-3.45,3.17,3.17,0,0,0-3.5,3.12,3.28,3.28,0,0,0,3.31,3.59A3.09,3.09,0,0,0,21.87,44.18Zm31.63-11a3.5,3.5,0,0,0-3.63-3.45,3.32,3.32,0,0,0-3.13,3.5,3.38,3.38,0,0,0,6.75,0ZM29.06,29.69a3.31,3.31,0,0,0-3.31,2.91,3.39,3.39,0,0,0,3,3.83,3.26,3.26,0,0,0,3.66-2.9C32.8,31.65,31.39,30,29.06,29.69Zm73.7,0A3.26,3.26,0,0,0,99.29,33a3.16,3.16,0,0,0,3.13,3.47A3.35,3.35,0,0,0,105.94,33,3.3,3.3,0,0,0,102.76,29.69ZM95.46,33a3.37,3.37,0,0,0-3.38-3.28c-1.95.16-3.27,1.13-3.25,3.31A3.12,3.12,0,0,0,92,36.44,3.39,3.39,0,0,0,95.46,33ZM60.12,29.8A3,3,0,0,0,57.25,33a3.21,3.21,0,0,0,3.21,3.44A3.36,3.36,0,0,0,64,33C63.8,31.1,62.77,29.81,60.12,29.8Zm10.82,0A3,3,0,0,0,68.07,33a3.21,3.21,0,0,0,3.21,3.44A3.36,3.36,0,0,0,74.82,33C74.62,31.1,73.59,29.81,70.94,29.8Zm-31.4,0a3.18,3.18,0,0,0-3.33,3.3,3.36,3.36,0,0,0,3.59,3.35A3.23,3.23,0,0,0,43,32.95,3.08,3.08,0,0,0,39.54,29.8ZM85,33.09c-.18-2-1.32-3.3-3.29-3.35a3,3,0,0,0-3.36,3.15,3.2,3.2,0,0,0,3.27,3.56C83.67,36.33,84.72,35.09,85,33.09Zm-63.14.09a3,3,0,0,0-3.1-3.45,3.17,3.17,0,0,0-3.5,3.12,3.28,3.28,0,0,0,3.31,3.59A3.09,3.09,0,0,0,21.87,33.18Zm80.64,29.67A3,3,0,0,0,99.3,66.1a3.06,3.06,0,0,0,3.2,3.35A3.24,3.24,0,0,0,105.93,66,3.11,3.11,0,0,0,102.51,62.85ZM21.86,66.8c0-2.8-1.14-3.93-3.21-3.93A3,3,0,0,0,15.27,66a3.26,3.26,0,0,0,3.43,3.44C20.74,69.32,21.81,68.14,21.86,66.8Zm59.62-3.94a2.91,2.91,0,0,0-3.11,3.32,3,3,0,0,0,3.24,3.27,3.25,3.25,0,0,0,3.34-3.53A3.1,3.1,0,0,0,81.47,62.86Zm10.24,6.6a3.46,3.46,0,0,0,3.74-3.17,3.23,3.23,0,0,0-3.4-3.42,2.88,2.88,0,0,0-3.22,3.21A3.11,3.11,0,0,0,91.71,69.46ZM21.88,76.95a2.9,2.9,0,0,0-3.29-3.06,3,3,0,0,0-3.31,3.21,3.22,3.22,0,0,0,3.49,3.37C20.8,80.29,21.85,79.11,21.88,76.95Zm0,11.26c0-2.22-1.2-3.27-3.24-3.31a3,3,0,0,0-3.36,3.17,3.31,3.31,0,0,0,3.44,3.46A3.11,3.11,0,0,0,21.87,88.21ZM95.46,76.93a3.1,3.1,0,0,0-3.22-3c-2.05-.06-3.3.94-3.41,3a3,3,0,0,0,3,3.52A3.4,3.4,0,0,0,95.46,76.93Zm6.59,3.54c2.31.09,4-1.4,3.87-3.34a3.05,3.05,0,0,0-3.3-3.24A3,3,0,0,0,99.3,77,3.07,3.07,0,0,0,102.06,80.47ZM95.49,88c-.32-1.9-1.33-3.15-3.42-3.12a3,3,0,0,0-3.24,3.24,3.24,3.24,0,0,0,3.44,3.38C94.31,91.33,95.28,90,95.49,88ZM106,88c-.34-1.88-1.32-3.16-3.42-3.12a3.06,3.06,0,0,0-3.26,3.26,3.21,3.21,0,0,0,3.46,3.36C104.76,91.3,105.81,90.08,106,88Z"/></svg>