<svg id="Calque_2" data-name="Calque 2" xmlns="http://www.w3.org/2000/svg" viewBox="0 0 121.24 121.24"><defs><style>.cls-1{fill:none;}</style></defs><title>Table Saw</title><rect class="cls-1" width="121.24" height="121.24"/><path d="M95.88,48.3v3.48H28.17V48.29H25.59a12.41,12.41,0,0,0-12.4,12.4V93.85H23.47V61.38h74.3V93.85H108V60.69A12.41,12.41,0,0,0,95.88,48.3Z"/><rect x="29.51" y="47.63" width="65.03" height="3.1"/><path d="M33.13,46.14H43.54a7.61,7.61,0,0,1,12.93,0H66.88A17.27,17.27,0,0,0,65.32,42h0l3.11-1.65-6.29-2.59,4.2-3.4-9,.08,3.4-4.85L47.58,32.82l.67-5.44L40.2,35.85l-1.77-5.57L35.27,40.57l-5.45-1.34,3.37,6.61C33.17,45.94,33.15,46,33.13,46.14Z"/></svg>